<svg width="181" height="28" viewBox="0 0 181 28" fill="none" xmlns="http://www.w3.org/2000/svg">
<path d="M27.2297 6C27.2297 9.31371 24.5992 12 21.3544 12C18.1096 12 15.4792 9.31371 15.4792 6C15.4792 2.68629 18.1096 0 21.3544 0C24.5992 0 27.2297 2.68629 27.2297 6Z" fill="#F18F62"/>
<path d="M26.7205 28C28.0833 28 29.2106 26.8628 28.9666 25.4936C28.7928 24.5184 28.5177 23.5625 28.1446 22.6424C27.4556 20.9439 26.4458 19.4005 25.1728 18.1005C23.8998 16.8005 22.3886 15.7693 20.7253 15.0657C19.8244 14.6846 18.8883 14.4036 17.9335 14.2262C16.5927 13.977 15.4792 15.1282 15.4792 16.52V25.48C15.4792 26.8718 16.5839 28 17.9468 28H26.7205Z" fill="#F18F62"/>
<path d="M1.77028 6C1.77028 9.31371 4.40072 12 7.64553 12C10.8903 12 13.5208 9.31371 13.5208 6C13.5208 2.68629 10.8903 0 7.64553 0C4.40072 0 1.77028 2.68629 1.77028 6Z" fill="#8B4CED"/>
<path d="M2.27953 28C0.916704 28 -0.210581 26.8628 0.0334066 25.4936C0.207166 24.5184 0.482253 23.5625 0.855448 22.6424C1.54439 20.9439 2.55418 19.4005 3.82717 18.1005C5.10016 16.8005 6.61142 15.7693 8.27467 15.0657C9.17564 14.6846 10.1117 14.4036 11.0665 14.2262C12.4073 13.977 13.5208 15.1282 13.5208 16.52V25.48C13.5208 26.8718 12.4161 28 11.0532 28H2.27953Z" fill="#8B4CED"/>
<path d="M45.3175 10.3779H48.5957V22.6562H45.3175V21.2074C44.3349 22.4025 42.9541 23 41.1752 23C39.4811 23 38.0241 22.3779 36.8043 21.1337C35.6014 19.8731 35 18.3342 35 16.5171C35 14.6999 35.6014 13.1692 36.8043 11.925C38.0241 10.6644 39.4811 10.0341 41.1752 10.0341C42.9541 10.0341 44.3349 10.6317 45.3175 11.8267V10.3779ZM39.2693 19.0218C39.93 19.6603 40.7686 19.9795 41.7851 19.9795C42.8017 19.9795 43.6403 19.6603 44.301 19.0218C44.9787 18.367 45.3175 17.5321 45.3175 16.5171C45.3175 15.502 44.9787 14.6753 44.301 14.0368C43.6403 13.382 42.8017 13.0546 41.7851 13.0546C40.7686 13.0546 39.93 13.382 39.2693 14.0368C38.6086 14.6753 38.2782 15.502 38.2782 16.5171C38.2782 17.5321 38.6086 18.367 39.2693 19.0218Z" fill="black"/>
<path d="M58.8364 13.4229H55.9648V18.5307C55.9648 18.9563 56.0749 19.2674 56.2951 19.4638C56.5154 19.6603 56.8372 19.7749 57.2608 19.8076C57.6843 19.824 58.2095 19.8158 58.8364 19.7831V22.6562C56.5831 22.9018 54.9906 22.6971 54.0588 22.0423C53.144 21.3874 52.6865 20.2169 52.6865 18.5307V13.4229H50.4756V10.3779H52.6865V7.89768L55.9648 6.93997V10.3779H58.8364V13.4229Z" fill="black"/>
<path d="M67.9194 13.4229H65.0477V18.5307C65.0477 18.9563 65.1579 19.2674 65.3781 19.4638C65.5984 19.6603 65.9202 19.7749 66.3438 19.8076C66.7673 19.824 67.2925 19.8158 67.9194 19.7831V22.6562C65.6661 22.9018 64.0736 22.6971 63.1418 22.0423C62.227 21.3874 61.7695 20.2169 61.7695 18.5307V13.4229H59.5586V10.3779H61.7695V7.89768L65.0477 6.93997V10.3779H67.9194V13.4229Z" fill="black"/>
<path d="M72.6036 17.8186C73.0441 19.3574 74.2385 20.1269 76.1868 20.1269C77.4405 20.1269 78.3892 19.7176 79.033 18.899L81.6759 20.3724C80.4222 22.1241 78.5756 23 76.136 23C74.0352 23 72.3495 22.3861 71.0789 21.1583C69.8082 19.9304 69.1729 18.3834 69.1729 16.5171C69.1729 14.6671 69.7998 13.1282 71.0534 11.9004C72.3071 10.6562 73.9166 10.0341 75.8818 10.0341C77.7454 10.0341 79.2786 10.6562 80.4815 11.9004C81.7013 13.1446 82.3112 14.6835 82.3112 16.5171C82.3112 16.9263 82.2688 17.3602 82.1841 17.8186H72.6036ZM72.5528 15.3629H79.033C78.8466 14.528 78.457 13.9059 77.864 13.4966C77.288 13.0873 76.6273 12.8827 75.8818 12.8827C75.0009 12.8827 74.2724 13.1037 73.6963 13.5457C73.1203 13.9713 72.7391 14.5771 72.5528 15.3629Z" fill="black"/>
<path d="M91.6644 10.0341C93.0536 10.0341 94.1972 10.4843 95.0951 11.3847C96.0099 12.2851 96.4674 13.5293 96.4674 15.1173V22.6562H93.1892V15.5102C93.1892 14.6917 92.9604 14.0696 92.503 13.6439C92.0456 13.2019 91.4357 12.9809 90.6733 12.9809C89.8262 12.9809 89.1486 13.2347 88.6403 13.7422C88.1321 14.2497 87.8779 15.0109 87.8779 16.0259V22.6562H84.5997V10.3779H87.8779V11.7531C88.6742 10.6071 89.9364 10.0341 91.6644 10.0341Z" fill="black"/>
<path d="M108.898 5.46658H112.176V22.6562H108.898V21.2074C107.932 22.4025 106.56 23 104.781 23C103.07 23 101.604 22.3779 100.385 21.1337C99.1818 19.8731 98.5804 18.3342 98.5804 16.5171C98.5804 14.6999 99.1818 13.1692 100.385 11.925C101.604 10.6644 103.07 10.0341 104.781 10.0341C106.56 10.0341 107.932 10.6317 108.898 11.8267V5.46658ZM102.85 19.0218C103.527 19.6603 104.374 19.9795 105.391 19.9795C106.407 19.9795 107.246 19.6603 107.907 19.0218C108.568 18.367 108.898 17.5321 108.898 16.5171C108.898 15.502 108.568 14.6753 107.907 14.0368C107.246 13.382 106.407 13.0546 105.391 13.0546C104.374 13.0546 103.527 13.382 102.85 14.0368C102.189 14.6753 101.859 15.502 101.859 16.5171C101.859 17.5321 102.189 18.367 102.85 19.0218Z" fill="black"/>
<path d="M117.944 17.8186C118.385 19.3574 119.579 20.1269 121.527 20.1269C122.781 20.1269 123.73 19.7176 124.374 18.899L127.016 20.3724C125.763 22.1241 123.916 23 121.476 23C119.376 23 117.69 22.3861 116.419 21.1583C115.149 19.9304 114.513 18.3834 114.513 16.5171C114.513 14.6671 115.14 13.1282 116.394 11.9004C117.648 10.6562 119.257 10.0341 121.222 10.0341C123.086 10.0341 124.619 10.6562 125.822 11.9004C127.042 13.1446 127.652 14.6835 127.652 16.5171C127.652 16.9263 127.609 17.3602 127.525 17.8186H117.944ZM117.893 15.3629H124.374C124.187 14.528 123.798 13.9059 123.205 13.4966C122.629 13.0873 121.968 12.8827 121.222 12.8827C120.341 12.8827 119.613 13.1037 119.037 13.5457C118.461 13.9713 118.08 14.5771 117.893 15.3629Z" fill="black"/>
<path d="M132.611 17.8186C133.051 19.3574 134.246 20.1269 136.194 20.1269C137.448 20.1269 138.397 19.7176 139.04 18.899L141.683 20.3724C140.43 22.1241 138.583 23 136.143 23C134.043 23 132.357 22.3861 131.086 21.1583C129.816 19.9304 129.18 18.3834 129.18 16.5171C129.18 14.6671 129.807 13.1282 131.061 11.9004C132.314 10.6562 133.924 10.0341 135.889 10.0341C137.753 10.0341 139.286 10.6562 140.489 11.9004C141.709 13.1446 142.319 14.6835 142.319 16.5171C142.319 16.9263 142.276 17.3602 142.191 17.8186H132.611ZM132.56 15.3629H139.04C138.854 14.528 138.464 13.9059 137.871 13.4966C137.295 13.0873 136.635 12.8827 135.889 12.8827C135.008 12.8827 134.28 13.1037 133.704 13.5457C133.128 13.9713 132.746 14.5771 132.56 15.3629Z" fill="black"/>
<path d="M147.135 13.8649C147.135 14.1924 147.355 14.4625 147.796 14.6753C148.253 14.8718 148.804 15.0518 149.447 15.2156C150.091 15.3629 150.735 15.5593 151.379 15.8049C152.022 16.0341 152.565 16.427 153.005 16.9836C153.463 17.5402 153.691 18.236 153.691 19.0709C153.691 20.3315 153.2 21.3056 152.217 21.9932C151.252 22.6644 150.04 23 148.583 23C145.974 23 144.195 22.0259 143.247 20.0778L146.093 18.5307C146.466 19.5948 147.296 20.1269 148.583 20.1269C149.752 20.1269 150.337 19.7749 150.337 19.0709C150.337 18.7435 150.108 18.4816 149.651 18.2851C149.21 18.0723 148.668 17.884 148.024 17.7203C147.38 17.5566 146.737 17.352 146.093 17.1064C145.449 16.8608 144.899 16.4761 144.441 15.9523C144.001 15.412 143.78 14.7408 143.78 13.9386C143.78 12.7271 144.238 11.7776 145.153 11.09C146.084 10.3861 147.236 10.0341 148.609 10.0341C149.642 10.0341 150.582 10.2633 151.43 10.7217C152.277 11.1637 152.946 11.8022 153.437 12.6371L150.642 14.1105C150.235 13.2756 149.557 12.8581 148.609 12.8581C148.185 12.8581 147.829 12.9482 147.541 13.1282C147.27 13.3083 147.135 13.5539 147.135 13.8649Z" fill="black"/>
<path d="M159.081 22.3615C158.658 22.7708 158.149 22.9754 157.557 22.9754C156.964 22.9754 156.455 22.7708 156.032 22.3615C155.608 21.9522 155.396 21.4611 155.396 20.8881C155.396 20.3151 155.608 19.824 156.032 19.4147C156.455 19.0055 156.964 18.8008 157.557 18.8008C158.149 18.8008 158.658 19.0055 159.081 19.4147C159.505 19.824 159.717 20.3151 159.717 20.8881C159.717 21.4611 159.505 21.9522 159.081 22.3615Z" fill="black"/>
<path d="M171.09 10.3779H174.368V22.6562H171.09V21.2074C170.107 22.4025 168.726 23 166.947 23C165.253 23 163.796 22.3779 162.577 21.1337C161.374 19.8731 160.772 18.3342 160.772 16.5171C160.772 14.6999 161.374 13.1692 162.577 11.925C163.796 10.6644 165.253 10.0341 166.947 10.0341C168.726 10.0341 170.107 10.6317 171.09 11.8267V10.3779ZM165.042 19.0218C165.702 19.6603 166.541 19.9795 167.557 19.9795C168.574 19.9795 169.412 19.6603 170.073 19.0218C170.751 18.367 171.09 17.5321 171.09 16.5171C171.09 15.502 170.751 14.6753 170.073 14.0368C169.412 13.382 168.574 13.0546 167.557 13.0546C166.541 13.0546 165.702 13.382 165.042 14.0368C164.381 14.6753 164.05 15.502 164.05 16.5171C164.05 17.5321 164.381 18.367 165.042 19.0218Z" fill="black"/>
<path d="M178.967 8.9045C178.425 8.9045 177.95 8.71624 177.544 8.3397C177.154 7.94679 176.959 7.4884 176.959 6.96453C176.959 6.44066 177.154 5.98227 177.544 5.58936C177.95 5.19645 178.425 5 178.967 5C179.526 5 180 5.19645 180.39 5.58936C180.797 5.98227 181 6.44066 181 6.96453C181 7.4884 180.797 7.94679 180.39 8.3397C180 8.71624 179.526 8.9045 178.967 8.9045ZM177.341 22.6562V10.3779H180.619V22.6562H177.341Z" fill="black"/>
</svg>
